<svg width="41" height="41" viewBox="0 0 41 41" fill="none" xmlns="http://www.w3.org/2000/svg">
<g clip-path="url(#clip0)">
<path d="M37.2131 32.5836C34.6881 30.2389 28.0753 28.4955 20.4404 28.4955C12.8055 28.4955 6.19262 30.2389 3.66767 32.5836L2.52539 34.7478C2.52539 38.1745 10.5811 41 20.5005 41C30.4198 41 38.4755 38.1745 38.4755 34.7478L37.2131 32.5836Z" fill="#FFDEC6"/>
<path d="M37.2135 32.5836L20.4408 0L3.66797 32.5836C6.19291 30.2389 12.8058 28.4955 20.4407 28.4955C28.0756 28.4955 34.6886 30.1789 37.2135 32.5836Z" fill="#E7833B"/>
<path d="M27 12.5L20.4398 0L14 12.5C15.8326 10.7983 24.5544 10.8085 27 12.5C27.0991 12.5685 26.9215 12.4252 27 12.5Z" fill="black"/>
</g>
<defs>
<clipPath id="clip0">
<rect width="41" height="41" fill="white"/>
</clipPath>
</defs>
</svg>
