<svg width="41" height="41" viewBox="0 0 41 41" fill="none" xmlns="http://www.w3.org/2000/svg">
<path d="M37.797 13.1328C37.607 13.1328 37.4212 13.0764 37.2632 12.9708C37.1052 12.8652 36.982 12.7152 36.9093 12.5396C36.8366 12.364 36.8175 12.1708 36.8546 11.9844C36.8917 11.798 36.9832 11.6268 37.1176 11.4924C37.7741 10.7753 38.2741 9.92933 38.5857 9.00836C39.1763 7.17193 38.6823 5.44737 37.1176 3.88256C35.5528 2.31776 33.828 1.82383 31.9918 2.41441C31.0698 2.72632 30.223 3.22712 29.5056 3.8848C29.4162 3.97389 29.3101 4.0445 29.1935 4.0926C29.0768 4.1407 28.9518 4.16534 28.8256 4.16513C28.5707 4.1647 28.3265 4.06305 28.1465 3.88252C27.9666 3.702 27.8658 3.4574 27.8662 3.20253C27.8666 2.94766 27.9683 2.70339 28.1488 2.52348C29.0616 1.66874 30.1447 1.01654 31.3271 0.609609C33.1185 0.0125469 35.813 -0.140162 38.4765 2.52348C41.14 5.18712 40.9874 7.8815 40.3904 9.67285C39.9834 10.8553 39.3312 11.9384 38.4765 12.8512C38.3874 12.9406 38.2815 13.0115 38.1649 13.0598C38.0483 13.1081 37.9233 13.1329 37.797 13.1328Z" fill="black"/>
<path d="M3.20168 13.1329C3.07576 13.1331 2.95105 13.1083 2.83473 13.0601C2.71841 13.0119 2.61277 12.9412 2.5239 12.852C1.66916 11.9392 1.01696 10.8561 0.61003 9.67369C0.0128875 7.88234 -0.139821 5.18787 2.5239 2.52432C5.18762 -0.139243 7.88184 0.0134658 9.67367 0.610528C10.8561 1.01746 11.9392 1.66966 12.852 2.5244C13.0298 2.7051 13.1289 2.94874 13.1279 3.20224C13.1269 3.45574 13.0257 3.69856 12.8465 3.87781C12.6672 4.05706 12.4244 4.15822 12.1709 4.15925C11.9174 4.16029 11.6738 4.06111 11.493 3.88332C10.776 3.22675 9.92999 2.72672 9.00902 2.41509C7.17267 1.82451 5.44811 2.31843 3.88322 3.88324C2.31834 5.44805 1.82409 7.17261 2.41467 9.00944C2.72658 9.9314 3.22738 10.7782 3.88507 11.4956C4.01844 11.6305 4.10894 11.8018 4.14518 11.988C4.18142 12.1742 4.16177 12.367 4.08872 12.542C4.01567 12.7171 3.89248 12.8666 3.73464 12.9718C3.5768 13.0771 3.39137 13.1332 3.20168 13.1333V13.1329Z" fill="black"/>
<path d="M7.51271 40.7517C6.009 40.7517 4.25986 40.2122 2.52384 38.476C-0.139796 35.8124 0.0129131 33.118 0.609976 31.3266C1.01691 30.1442 1.66911 29.0611 2.52384 28.1483C2.70455 27.9705 2.94819 27.8714 3.20168 27.8724C3.45518 27.8734 3.69801 27.9746 3.87726 28.1538C4.05651 28.3331 4.15767 28.5759 4.1587 28.8294C4.15973 29.0829 4.06055 29.3265 3.88277 29.5072C3.22622 30.2243 2.72622 31.0703 2.41462 31.9913C1.82404 33.8277 2.31804 35.5523 3.88277 37.1171C5.44749 38.6819 7.17238 39.1758 9.00857 38.5852C9.93053 38.2733 10.7773 37.7725 11.4948 37.1148C11.5841 37.0257 11.6902 36.9551 11.8069 36.907C11.9235 36.8589 12.0486 36.8343 12.1748 36.8345C12.301 36.8347 12.4259 36.8598 12.5424 36.9083C12.6589 36.9568 12.7647 37.0277 12.8538 37.1171C12.9429 37.2065 13.0135 37.3125 13.0616 37.4292C13.1097 37.5459 13.1343 37.6709 13.1341 37.7971C13.1339 37.9233 13.1088 38.0482 13.0604 38.1647C13.0119 38.2812 12.9409 38.3871 12.8515 38.4762C11.9387 39.3309 10.8556 39.9831 9.67322 40.39C8.97714 40.6258 8.24763 40.748 7.51271 40.7517Z" fill="black"/>
<path d="M33.4877 40.7517C32.7528 40.748 32.0233 40.6257 31.3273 40.3898C30.1449 39.9829 29.0618 39.3307 28.149 38.4759C27.9712 38.2952 27.872 38.0516 27.8731 37.7981C27.8741 37.5446 27.9752 37.3018 28.1545 37.1225C28.3338 36.9433 28.5766 36.8421 28.8301 36.8411C29.0836 36.84 29.3272 36.9392 29.5079 37.117C30.225 37.7735 31.071 38.2735 31.9919 38.5851C33.8284 39.1756 35.5529 38.6817 37.1177 37.117C38.6825 35.5523 39.1765 33.8276 38.5859 31.9912C38.274 31.0692 37.7732 30.2225 37.1155 29.505C36.9356 29.3245 36.8347 29.0799 36.8352 28.825C36.8356 28.5701 36.9373 28.3259 37.1178 28.146C37.2983 27.966 37.5429 27.8652 37.7978 27.8656C38.0526 27.8661 38.2969 27.9677 38.4768 28.1482C39.3316 29.061 39.9838 30.1441 40.3907 31.3265C40.9878 33.1179 41.1405 35.8124 38.4768 38.4759C36.7407 40.2123 34.9913 40.7517 33.4877 40.7517Z" fill="black"/>
<path d="M34.7692 6.23078C30.9848 2.44635 25.852 0.320282 20.5 0.320282C15.148 0.320282 10.0152 2.44635 6.23081 6.23078C2.44638 10.0152 0.320313 15.148 0.320312 20.5C0.320313 25.852 2.44638 30.9848 6.23081 34.7692C10.0152 38.5536 15.148 40.6797 20.5 40.6797C25.852 40.6797 30.9848 38.5536 34.7692 34.7692C38.5536 30.9848 40.6797 25.852 40.6797 20.5C40.6797 15.148 38.5536 10.0152 34.7692 6.23078ZM20.5 31.0703C14.6715 31.0703 9.9297 26.3285 9.9297 20.5C9.9297 14.6715 14.6715 9.92967 20.5 9.92967C26.3285 9.92967 31.0703 14.6715 31.0703 20.5C31.0703 26.3285 26.3285 31.0703 20.5 31.0703Z" fill="#FFDEC6"/>
<path d="M38.3132 10.9977C36.4183 7.47275 33.5287 4.58286 30.004 2.68765L29.9845 2.6774L24.7852 10.8382C27.1786 11.9066 29.0933 13.8212 30.1616 16.2147L38.3224 11.0154C38.3193 11.0096 38.3163 11.0035 38.3132 10.9977Z" fill="#E7833B"/>
<path d="M10.998 2.68669C7.47308 4.58152 4.58319 7.4711 2.68798 10.9958C2.68462 11.0022 2.6811 11.009 2.67773 11.0154L10.8386 16.2147C11.9069 13.8212 13.8215 11.9066 16.215 10.8382L11.0157 2.6774C11.0099 2.68052 11.0039 2.68356 10.998 2.68669Z" fill="#E7833B"/>
<path d="M2.68702 30.0023C4.58186 33.5272 7.47144 36.4171 10.9962 38.3123L11.0157 38.3226L16.215 30.1617C13.8215 29.0934 11.9069 27.1788 10.8386 24.7853L2.67773 29.9846C2.68086 29.9904 2.6839 29.9964 2.68702 30.0023Z" fill="#E7833B"/>
<path d="M30.0022 38.3133C33.5271 36.4184 36.417 33.5289 38.3122 30.0041C38.3156 29.9977 38.3191 29.9909 38.3224 29.9846L30.1616 24.7853C29.0933 27.1788 27.1786 29.0934 24.7852 30.1617L29.9845 38.3226C29.9902 38.3194 29.9963 38.3164 30.0022 38.3133Z" fill="#E7833B"/>
</svg>
