<svg width="39" height="39" viewBox="0 0 39 39" fill="none" xmlns="http://www.w3.org/2000/svg">
<g clip-path="url(#clip0)">
<path d="M14.8147 5.37257H23.2736V7.43011H26.017V5.37257C26.017 3.81799 24.8281 2.62915 23.2736 2.62915H14.8147C13.2601 2.62915 12.0713 3.81799 12.0713 5.37257V7.43011H14.8147V5.37257Z" fill="black"/>
<path d="M23.6392 21.4673V22.2446C23.6392 23.022 23.0447 23.6163 22.2675 23.6163H15.7747C14.9974 23.6163 14.4031 23.0219 14.4031 22.2446V21.4673H2.05762V33.2182C2.05762 34.7728 3.24646 35.9616 4.80104 35.9616H33.7898C35.3444 35.9616 36.5332 34.7728 36.5332 33.2182V21.4673H23.6392Z" fill="#FFDEC6"/>
<path d="M37.219 7.20154H26.0167H23.2733H14.8144H12.071H1.37167C0.594421 7.20154 0 7.79596 0 8.5732V20.5528C0 21.3302 0.594421 21.9245 1.37167 21.9245H2.05754H14.4029V18.4037C14.4029 17.6264 14.9973 17.0321 15.7746 17.0321H22.2673C23.0447 17.0321 23.639 17.6265 23.639 18.4037V21.9245H36.5331H37.219C37.9963 21.9245 38.5906 21.3301 38.5906 20.5528V8.5732C38.5907 7.79596 37.9963 7.20154 37.219 7.20154Z" fill="#E7833B"/>
<path d="M14.8599 24.5308H23.1817C23.959 24.5308 24.5533 23.9363 24.5533 23.1591V21.9246V17.9466C24.5533 17.1693 23.9589 16.575 23.1817 16.575H14.8599C14.0826 16.575 13.4883 17.1694 13.4883 17.9466V21.9246V23.1591C13.4882 23.9363 14.0826 24.5308 14.8599 24.5308Z" fill="#CF702A"/>
</g>
<defs>
<clipPath id="clip0">
<rect width="38.5907" height="38.5907" fill="white"/>
</clipPath>
</defs>
</svg>
