<svg width="28" height="25" viewBox="0 0 28 25" fill="none" xmlns="http://www.w3.org/2000/svg">
<path d="M24 6.04163H4C2.61929 6.04163 1.5 7.19822 1.5 8.62496V21.5416C1.5 22.9684 2.61929 24.125 4 24.125H24C25.3807 24.125 26.5 22.9684 26.5 21.5416V8.62496C26.5 7.19822 25.3807 6.04163 24 6.04163Z" stroke="#FF852C" stroke-width="1.2" stroke-linecap="round" stroke-linejoin="round"/>
<path d="M19 24.125V3.45833C19 2.77319 18.7366 2.11611 18.2678 1.63164C17.7989 1.14717 17.163 0.875 16.5 0.875H11.5C10.837 0.875 10.2011 1.14717 9.73223 1.63164C9.26339 2.11611 9 2.77319 9 3.45833V24.125" stroke="#FF852C" stroke-width="1.2" stroke-linecap="round" stroke-linejoin="round"/>
</svg>
